<mxfile host="app.diagrams.net" modified="2022-11-10T14:52:16.549Z" agent="5.0 (Windows NT 10.0; Win64; x64) AppleWebKit/537.36 (KHTML, like Gecko) Chrome/107.0.0.0 Safari/537.36" etag="gmQBGQoIv293dWrSe-Hq" version="20.3.7" type="github">
  <diagram id="4UE8-Jyu3kTv8KnOeni6" name="StrÃ¡nka-1">
    <mxGraphModel dx="1209" dy="1843" grid="1" gridSize="10" guides="1" tooltips="1" connect="1" arrows="1" fold="1" page="1" pageScale="1" pageWidth="827" pageHeight="1169" math="0" shadow="0">
      <root>
        <mxCell id="0" />
        <mxCell id="1" parent="0" />
        <mxCell id="TP10MBpGBiV2c0ffZKtO-1" value="" style="ellipse;whiteSpace=wrap;html=1;aspect=fixed;" vertex="1" parent="1">
          <mxGeometry x="210" y="-40" width="80" height="80" as="geometry" />
        </mxCell>
        <mxCell id="TP10MBpGBiV2c0ffZKtO-2" value="" style="endArrow=none;html=1;rounded=0;entryX=0;entryY=0.5;entryDx=0;entryDy=0;exitX=1;exitY=0.5;exitDx=0;exitDy=0;" edge="1" parent="1" source="TP10MBpGBiV2c0ffZKtO-1" target="TP10MBpGBiV2c0ffZKtO-1">
          <mxGeometry width="50" height="50" relative="1" as="geometry">
            <mxPoint x="510" y="220" as="sourcePoint" />
            <mxPoint x="560" y="170" as="targetPoint" />
          </mxGeometry>
        </mxCell>
        <mxCell id="TP10MBpGBiV2c0ffZKtO-3" value="" style="endArrow=none;html=1;rounded=0;exitX=0.5;exitY=1;exitDx=0;exitDy=0;" edge="1" parent="1" source="TP10MBpGBiV2c0ffZKtO-1">
          <mxGeometry width="50" height="50" relative="1" as="geometry">
            <mxPoint x="510" y="220" as="sourcePoint" />
            <mxPoint x="250" as="targetPoint" />
          </mxGeometry>
        </mxCell>
        <mxCell id="TP10MBpGBiV2c0ffZKtO-4" value="0" style="text;html=1;strokeColor=none;fillColor=none;align=center;verticalAlign=middle;whiteSpace=wrap;rounded=0;" vertex="1" parent="1">
          <mxGeometry x="220" width="30" height="30" as="geometry" />
        </mxCell>
        <mxCell id="TP10MBpGBiV2c0ffZKtO-5" value="0" style="text;html=1;strokeColor=none;fillColor=none;align=center;verticalAlign=middle;whiteSpace=wrap;rounded=0;" vertex="1" parent="1">
          <mxGeometry x="250" y="1" width="30" height="30" as="geometry" />
        </mxCell>
        <mxCell id="TP10MBpGBiV2c0ffZKtO-6" value="" style="ellipse;whiteSpace=wrap;html=1;aspect=fixed;" vertex="1" parent="1">
          <mxGeometry x="30" y="70" width="80" height="80" as="geometry" />
        </mxCell>
        <mxCell id="TP10MBpGBiV2c0ffZKtO-7" value="" style="endArrow=none;html=1;rounded=0;entryX=0;entryY=0.5;entryDx=0;entryDy=0;exitX=1;exitY=0.5;exitDx=0;exitDy=0;" edge="1" parent="1" source="TP10MBpGBiV2c0ffZKtO-6" target="TP10MBpGBiV2c0ffZKtO-6">
          <mxGeometry width="50" height="50" relative="1" as="geometry">
            <mxPoint x="330" y="330" as="sourcePoint" />
            <mxPoint x="380" y="280" as="targetPoint" />
          </mxGeometry>
        </mxCell>
        <mxCell id="TP10MBpGBiV2c0ffZKtO-8" value="" style="endArrow=none;html=1;rounded=0;exitX=0.5;exitY=1;exitDx=0;exitDy=0;" edge="1" parent="1" source="TP10MBpGBiV2c0ffZKtO-6">
          <mxGeometry width="50" height="50" relative="1" as="geometry">
            <mxPoint x="330" y="330" as="sourcePoint" />
            <mxPoint x="70" y="110" as="targetPoint" />
          </mxGeometry>
        </mxCell>
        <mxCell id="TP10MBpGBiV2c0ffZKtO-9" value="0" style="text;html=1;strokeColor=none;fillColor=none;align=center;verticalAlign=middle;whiteSpace=wrap;rounded=0;" vertex="1" parent="1">
          <mxGeometry x="40" y="110" width="30" height="30" as="geometry" />
        </mxCell>
        <mxCell id="TP10MBpGBiV2c0ffZKtO-10" value="0" style="text;html=1;strokeColor=none;fillColor=none;align=center;verticalAlign=middle;whiteSpace=wrap;rounded=0;" vertex="1" parent="1">
          <mxGeometry x="70" y="111" width="30" height="30" as="geometry" />
        </mxCell>
        <mxCell id="TP10MBpGBiV2c0ffZKtO-11" value="" style="endArrow=classic;html=1;rounded=0;entryX=0.025;entryY=0.725;entryDx=0;entryDy=0;entryPerimeter=0;" edge="1" parent="1" source="TP10MBpGBiV2c0ffZKtO-6" target="TP10MBpGBiV2c0ffZKtO-1">
          <mxGeometry width="50" height="50" relative="1" as="geometry">
            <mxPoint x="310" y="150" as="sourcePoint" />
            <mxPoint x="360" y="100" as="targetPoint" />
          </mxGeometry>
        </mxCell>
        <mxCell id="TP10MBpGBiV2c0ffZKtO-12" value="A" style="text;html=1;strokeColor=none;fillColor=none;align=center;verticalAlign=middle;whiteSpace=wrap;rounded=0;" vertex="1" parent="1">
          <mxGeometry x="120" y="30" width="60" height="30" as="geometry" />
        </mxCell>
        <mxCell id="TP10MBpGBiV2c0ffZKtO-13" value="60" style="text;html=1;strokeColor=none;fillColor=none;align=center;verticalAlign=middle;whiteSpace=wrap;rounded=0;" vertex="1" parent="1">
          <mxGeometry x="140" y="60" width="60" height="30" as="geometry" />
        </mxCell>
        <mxCell id="TP10MBpGBiV2c0ffZKtO-14" value="" style="endArrow=classic;html=1;rounded=0;entryX=0;entryY=0;entryDx=0;entryDy=0;exitX=0.8;exitY=0.063;exitDx=0;exitDy=0;exitPerimeter=0;" edge="1" parent="1" source="TP10MBpGBiV2c0ffZKtO-1" target="TP10MBpGBiV2c0ffZKtO-82">
          <mxGeometry width="50" height="50" relative="1" as="geometry">
            <mxPoint x="280.0001151887404" y="-19.749652094113117" as="sourcePoint" />
            <mxPoint x="319" y="-160" as="targetPoint" />
          </mxGeometry>
        </mxCell>
        <mxCell id="TP10MBpGBiV2c0ffZKtO-15" value="B" style="text;html=1;strokeColor=none;fillColor=none;align=center;verticalAlign=middle;whiteSpace=wrap;rounded=0;" vertex="1" parent="1">
          <mxGeometry x="971" y="110" width="60" height="30" as="geometry" />
        </mxCell>
        <mxCell id="TP10MBpGBiV2c0ffZKtO-16" value="80" style="text;html=1;strokeColor=none;fillColor=none;align=center;verticalAlign=middle;whiteSpace=wrap;rounded=0;" vertex="1" parent="1">
          <mxGeometry x="966" y="140" width="60" height="30" as="geometry" />
        </mxCell>
        <mxCell id="TP10MBpGBiV2c0ffZKtO-17" value="" style="endArrow=classic;html=1;rounded=0;exitX=1.038;exitY=0.675;exitDx=0;exitDy=0;exitPerimeter=0;entryX=0.391;entryY=-0.055;entryDx=0;entryDy=0;entryPerimeter=0;" edge="1" parent="1" source="TP10MBpGBiV2c0ffZKtO-1" target="TP10MBpGBiV2c0ffZKtO-66">
          <mxGeometry width="50" height="50" relative="1" as="geometry">
            <mxPoint x="290.00011518874044" y="-9.749652094113117" as="sourcePoint" />
            <mxPoint x="390" y="20" as="targetPoint" />
          </mxGeometry>
        </mxCell>
        <mxCell id="TP10MBpGBiV2c0ffZKtO-18" value="C" style="text;html=1;strokeColor=none;fillColor=none;align=center;verticalAlign=middle;whiteSpace=wrap;rounded=0;" vertex="1" parent="1">
          <mxGeometry x="730" y="130" width="60" height="30" as="geometry" />
        </mxCell>
        <mxCell id="TP10MBpGBiV2c0ffZKtO-19" value="150" style="text;html=1;strokeColor=none;fillColor=none;align=center;verticalAlign=middle;whiteSpace=wrap;rounded=0;" vertex="1" parent="1">
          <mxGeometry x="730" y="161" width="60" height="30" as="geometry" />
        </mxCell>
        <mxCell id="TP10MBpGBiV2c0ffZKtO-20" value="" style="ellipse;whiteSpace=wrap;html=1;aspect=fixed;" vertex="1" parent="1">
          <mxGeometry x="334" y="120" width="80" height="80" as="geometry" />
        </mxCell>
        <mxCell id="TP10MBpGBiV2c0ffZKtO-21" value="" style="endArrow=none;html=1;rounded=0;entryX=0;entryY=0.5;entryDx=0;entryDy=0;exitX=1;exitY=0.5;exitDx=0;exitDy=0;" edge="1" parent="1" source="TP10MBpGBiV2c0ffZKtO-20" target="TP10MBpGBiV2c0ffZKtO-20">
          <mxGeometry width="50" height="50" relative="1" as="geometry">
            <mxPoint x="634" y="380" as="sourcePoint" />
            <mxPoint x="684" y="330" as="targetPoint" />
          </mxGeometry>
        </mxCell>
        <mxCell id="TP10MBpGBiV2c0ffZKtO-22" value="" style="endArrow=none;html=1;rounded=0;exitX=0.5;exitY=1;exitDx=0;exitDy=0;" edge="1" parent="1" source="TP10MBpGBiV2c0ffZKtO-20">
          <mxGeometry width="50" height="50" relative="1" as="geometry">
            <mxPoint x="634" y="380" as="sourcePoint" />
            <mxPoint x="374" y="160" as="targetPoint" />
          </mxGeometry>
        </mxCell>
        <mxCell id="TP10MBpGBiV2c0ffZKtO-23" value="0" style="text;html=1;strokeColor=none;fillColor=none;align=center;verticalAlign=middle;whiteSpace=wrap;rounded=0;" vertex="1" parent="1">
          <mxGeometry x="344" y="160" width="30" height="30" as="geometry" />
        </mxCell>
        <mxCell id="TP10MBpGBiV2c0ffZKtO-24" value="0" style="text;html=1;strokeColor=none;fillColor=none;align=center;verticalAlign=middle;whiteSpace=wrap;rounded=0;" vertex="1" parent="1">
          <mxGeometry x="374" y="161" width="30" height="30" as="geometry" />
        </mxCell>
        <mxCell id="TP10MBpGBiV2c0ffZKtO-25" value="" style="endArrow=classic;html=1;rounded=0;entryX=0;entryY=0;entryDx=0;entryDy=0;exitX=0.838;exitY=0.95;exitDx=0;exitDy=0;exitPerimeter=0;" edge="1" parent="1" source="TP10MBpGBiV2c0ffZKtO-1" target="TP10MBpGBiV2c0ffZKtO-20">
          <mxGeometry width="50" height="50" relative="1" as="geometry">
            <mxPoint x="290.00011518874044" y="-9.749652094113117" as="sourcePoint" />
            <mxPoint x="384" y="-90" as="targetPoint" />
          </mxGeometry>
        </mxCell>
        <mxCell id="TP10MBpGBiV2c0ffZKtO-26" value="D" style="text;html=1;strokeColor=none;fillColor=none;align=center;verticalAlign=middle;whiteSpace=wrap;rounded=0;" vertex="1" parent="1">
          <mxGeometry x="290" y="60" width="60" height="30" as="geometry" />
        </mxCell>
        <mxCell id="TP10MBpGBiV2c0ffZKtO-27" value="15" style="text;html=1;strokeColor=none;fillColor=none;align=center;verticalAlign=middle;whiteSpace=wrap;rounded=0;" vertex="1" parent="1">
          <mxGeometry x="265" y="80" width="60" height="30" as="geometry" />
        </mxCell>
        <mxCell id="TP10MBpGBiV2c0ffZKtO-28" value="" style="ellipse;whiteSpace=wrap;html=1;aspect=fixed;" vertex="1" parent="1">
          <mxGeometry x="255" y="260" width="80" height="80" as="geometry" />
        </mxCell>
        <mxCell id="TP10MBpGBiV2c0ffZKtO-29" value="" style="endArrow=none;html=1;rounded=0;entryX=0;entryY=0.5;entryDx=0;entryDy=0;exitX=1;exitY=0.5;exitDx=0;exitDy=0;" edge="1" parent="1" source="TP10MBpGBiV2c0ffZKtO-28" target="TP10MBpGBiV2c0ffZKtO-28">
          <mxGeometry width="50" height="50" relative="1" as="geometry">
            <mxPoint x="555" y="520" as="sourcePoint" />
            <mxPoint x="605" y="470" as="targetPoint" />
          </mxGeometry>
        </mxCell>
        <mxCell id="TP10MBpGBiV2c0ffZKtO-30" value="" style="endArrow=none;html=1;rounded=0;exitX=0.5;exitY=1;exitDx=0;exitDy=0;" edge="1" parent="1" source="TP10MBpGBiV2c0ffZKtO-28">
          <mxGeometry width="50" height="50" relative="1" as="geometry">
            <mxPoint x="555" y="520" as="sourcePoint" />
            <mxPoint x="295" y="300" as="targetPoint" />
          </mxGeometry>
        </mxCell>
        <mxCell id="TP10MBpGBiV2c0ffZKtO-31" value="0" style="text;html=1;strokeColor=none;fillColor=none;align=center;verticalAlign=middle;whiteSpace=wrap;rounded=0;" vertex="1" parent="1">
          <mxGeometry x="265" y="300" width="30" height="30" as="geometry" />
        </mxCell>
        <mxCell id="TP10MBpGBiV2c0ffZKtO-32" value="0" style="text;html=1;strokeColor=none;fillColor=none;align=center;verticalAlign=middle;whiteSpace=wrap;rounded=0;" vertex="1" parent="1">
          <mxGeometry x="295" y="301" width="30" height="30" as="geometry" />
        </mxCell>
        <mxCell id="TP10MBpGBiV2c0ffZKtO-33" value="" style="endArrow=classic;html=1;rounded=0;entryX=0.288;entryY=0.063;entryDx=0;entryDy=0;entryPerimeter=0;exitX=0.223;exitY=1.016;exitDx=0;exitDy=0;exitPerimeter=0;" edge="1" parent="1" source="TP10MBpGBiV2c0ffZKtO-20" target="TP10MBpGBiV2c0ffZKtO-28">
          <mxGeometry width="50" height="50" relative="1" as="geometry">
            <mxPoint x="250" y="40" as="sourcePoint" />
            <mxPoint x="355.71572875253787" y="141.71572875253787" as="targetPoint" />
          </mxGeometry>
        </mxCell>
        <mxCell id="TP10MBpGBiV2c0ffZKtO-34" value="E" style="text;html=1;strokeColor=none;fillColor=none;align=center;verticalAlign=middle;whiteSpace=wrap;rounded=0;" vertex="1" parent="1">
          <mxGeometry x="264" y="210" width="60" height="30" as="geometry" />
        </mxCell>
        <mxCell id="TP10MBpGBiV2c0ffZKtO-35" value="10" style="text;html=1;strokeColor=none;fillColor=none;align=center;verticalAlign=middle;whiteSpace=wrap;rounded=0;" vertex="1" parent="1">
          <mxGeometry x="314" y="230" width="60" height="30" as="geometry" />
        </mxCell>
        <mxCell id="TP10MBpGBiV2c0ffZKtO-36" value="" style="ellipse;whiteSpace=wrap;html=1;aspect=fixed;" vertex="1" parent="1">
          <mxGeometry x="414" y="321" width="80" height="80" as="geometry" />
        </mxCell>
        <mxCell id="TP10MBpGBiV2c0ffZKtO-37" value="" style="endArrow=none;html=1;rounded=0;entryX=0;entryY=0.5;entryDx=0;entryDy=0;exitX=1;exitY=0.5;exitDx=0;exitDy=0;" edge="1" parent="1" source="TP10MBpGBiV2c0ffZKtO-36" target="TP10MBpGBiV2c0ffZKtO-36">
          <mxGeometry width="50" height="50" relative="1" as="geometry">
            <mxPoint x="714" y="581" as="sourcePoint" />
            <mxPoint x="764" y="531" as="targetPoint" />
          </mxGeometry>
        </mxCell>
        <mxCell id="TP10MBpGBiV2c0ffZKtO-38" value="" style="endArrow=none;html=1;rounded=0;exitX=0.5;exitY=1;exitDx=0;exitDy=0;" edge="1" parent="1" source="TP10MBpGBiV2c0ffZKtO-36">
          <mxGeometry width="50" height="50" relative="1" as="geometry">
            <mxPoint x="714" y="581" as="sourcePoint" />
            <mxPoint x="454" y="361" as="targetPoint" />
          </mxGeometry>
        </mxCell>
        <mxCell id="TP10MBpGBiV2c0ffZKtO-39" value="0" style="text;html=1;strokeColor=none;fillColor=none;align=center;verticalAlign=middle;whiteSpace=wrap;rounded=0;" vertex="1" parent="1">
          <mxGeometry x="424" y="361" width="30" height="30" as="geometry" />
        </mxCell>
        <mxCell id="TP10MBpGBiV2c0ffZKtO-40" value="0" style="text;html=1;strokeColor=none;fillColor=none;align=center;verticalAlign=middle;whiteSpace=wrap;rounded=0;" vertex="1" parent="1">
          <mxGeometry x="454" y="362" width="30" height="30" as="geometry" />
        </mxCell>
        <mxCell id="TP10MBpGBiV2c0ffZKtO-41" value="" style="endArrow=classic;html=1;rounded=0;" edge="1" parent="1" target="TP10MBpGBiV2c0ffZKtO-36">
          <mxGeometry width="50" height="50" relative="1" as="geometry">
            <mxPoint x="331.5701151887404" y="320.0003479058869" as="sourcePoint" />
            <mxPoint x="440" y="249.75" as="targetPoint" />
          </mxGeometry>
        </mxCell>
        <mxCell id="TP10MBpGBiV2c0ffZKtO-42" value="G" style="text;html=1;strokeColor=none;fillColor=none;align=center;verticalAlign=middle;whiteSpace=wrap;rounded=0;" vertex="1" parent="1">
          <mxGeometry x="344" y="310" width="60" height="30" as="geometry" />
        </mxCell>
        <mxCell id="TP10MBpGBiV2c0ffZKtO-43" value="5" style="text;html=1;strokeColor=none;fillColor=none;align=center;verticalAlign=middle;whiteSpace=wrap;rounded=0;" vertex="1" parent="1">
          <mxGeometry x="344" y="332" width="60" height="30" as="geometry" />
        </mxCell>
        <mxCell id="TP10MBpGBiV2c0ffZKtO-44" value="" style="endArrow=classic;html=1;rounded=0;entryX=0.377;entryY=0.016;entryDx=0;entryDy=0;entryPerimeter=0;exitX=0.973;exitY=0.195;exitDx=0;exitDy=0;exitPerimeter=0;" edge="1" parent="1" source="TP10MBpGBiV2c0ffZKtO-28" target="TP10MBpGBiV2c0ffZKtO-58">
          <mxGeometry width="50" height="50" relative="1" as="geometry">
            <mxPoint x="310" y="450" as="sourcePoint" />
            <mxPoint x="360" y="400" as="targetPoint" />
          </mxGeometry>
        </mxCell>
        <mxCell id="TP10MBpGBiV2c0ffZKtO-45" value="H" style="text;html=1;strokeColor=none;fillColor=none;align=center;verticalAlign=middle;whiteSpace=wrap;rounded=0;" vertex="1" parent="1">
          <mxGeometry x="540" y="260" width="60" height="30" as="geometry" />
        </mxCell>
        <mxCell id="TP10MBpGBiV2c0ffZKtO-46" value="10" style="text;html=1;strokeColor=none;fillColor=none;align=center;verticalAlign=middle;whiteSpace=wrap;rounded=0;" vertex="1" parent="1">
          <mxGeometry x="540" y="291" width="60" height="30" as="geometry" />
        </mxCell>
        <mxCell id="TP10MBpGBiV2c0ffZKtO-47" value="" style="endArrow=classic;html=1;rounded=0;entryX=0.246;entryY=0.977;entryDx=0;entryDy=0;entryPerimeter=0;exitX=0.5;exitY=1;exitDx=0;exitDy=0;" edge="1" parent="1" source="TP10MBpGBiV2c0ffZKtO-28" target="TP10MBpGBiV2c0ffZKtO-66">
          <mxGeometry width="50" height="50" relative="1" as="geometry">
            <mxPoint x="370" y="480" as="sourcePoint" />
            <mxPoint x="470.0400000000004" y="660" as="targetPoint" />
            <Array as="points">
              <mxPoint x="630" y="580" />
            </Array>
          </mxGeometry>
        </mxCell>
        <mxCell id="TP10MBpGBiV2c0ffZKtO-48" value="I" style="text;html=1;strokeColor=none;fillColor=none;align=center;verticalAlign=middle;whiteSpace=wrap;rounded=0;" vertex="1" parent="1">
          <mxGeometry x="600" y="530" width="60" height="30" as="geometry" />
        </mxCell>
        <mxCell id="TP10MBpGBiV2c0ffZKtO-49" value="20" style="text;html=1;strokeColor=none;fillColor=none;align=center;verticalAlign=middle;whiteSpace=wrap;rounded=0;" vertex="1" parent="1">
          <mxGeometry x="589" y="585" width="60" height="30" as="geometry" />
        </mxCell>
        <mxCell id="TP10MBpGBiV2c0ffZKtO-50" value="" style="ellipse;whiteSpace=wrap;html=1;aspect=fixed;" vertex="1" parent="1">
          <mxGeometry x="680" y="321" width="80" height="80" as="geometry" />
        </mxCell>
        <mxCell id="TP10MBpGBiV2c0ffZKtO-51" value="" style="endArrow=none;html=1;rounded=0;entryX=0;entryY=0.5;entryDx=0;entryDy=0;exitX=1;exitY=0.5;exitDx=0;exitDy=0;" edge="1" parent="1" source="TP10MBpGBiV2c0ffZKtO-50" target="TP10MBpGBiV2c0ffZKtO-50">
          <mxGeometry width="50" height="50" relative="1" as="geometry">
            <mxPoint x="980" y="581" as="sourcePoint" />
            <mxPoint x="1030" y="531" as="targetPoint" />
          </mxGeometry>
        </mxCell>
        <mxCell id="TP10MBpGBiV2c0ffZKtO-52" value="" style="endArrow=none;html=1;rounded=0;exitX=0.5;exitY=1;exitDx=0;exitDy=0;" edge="1" parent="1" source="TP10MBpGBiV2c0ffZKtO-50">
          <mxGeometry width="50" height="50" relative="1" as="geometry">
            <mxPoint x="980" y="581" as="sourcePoint" />
            <mxPoint x="720" y="361" as="targetPoint" />
          </mxGeometry>
        </mxCell>
        <mxCell id="TP10MBpGBiV2c0ffZKtO-53" value="0" style="text;html=1;strokeColor=none;fillColor=none;align=center;verticalAlign=middle;whiteSpace=wrap;rounded=0;" vertex="1" parent="1">
          <mxGeometry x="690" y="361" width="30" height="30" as="geometry" />
        </mxCell>
        <mxCell id="TP10MBpGBiV2c0ffZKtO-54" value="0" style="text;html=1;strokeColor=none;fillColor=none;align=center;verticalAlign=middle;whiteSpace=wrap;rounded=0;" vertex="1" parent="1">
          <mxGeometry x="720" y="362" width="30" height="30" as="geometry" />
        </mxCell>
        <mxCell id="TP10MBpGBiV2c0ffZKtO-55" value="" style="endArrow=classic;html=1;rounded=0;entryX=0;entryY=0.5;entryDx=0;entryDy=0;" edge="1" parent="1" target="TP10MBpGBiV2c0ffZKtO-50">
          <mxGeometry width="50" height="50" relative="1" as="geometry">
            <mxPoint x="494" y="362" as="sourcePoint" />
            <mxPoint x="544" y="312" as="targetPoint" />
          </mxGeometry>
        </mxCell>
        <mxCell id="TP10MBpGBiV2c0ffZKtO-56" value="J" style="text;html=1;strokeColor=none;fillColor=none;align=center;verticalAlign=middle;whiteSpace=wrap;rounded=0;" vertex="1" parent="1">
          <mxGeometry x="549" y="332" width="60" height="30" as="geometry" />
        </mxCell>
        <mxCell id="TP10MBpGBiV2c0ffZKtO-57" value="60" style="text;html=1;strokeColor=none;fillColor=none;align=center;verticalAlign=middle;whiteSpace=wrap;rounded=0;" vertex="1" parent="1">
          <mxGeometry x="549" y="360" width="60" height="30" as="geometry" />
        </mxCell>
        <mxCell id="TP10MBpGBiV2c0ffZKtO-58" value="" style="ellipse;whiteSpace=wrap;html=1;aspect=fixed;" vertex="1" parent="1">
          <mxGeometry x="946" y="320" width="80" height="80" as="geometry" />
        </mxCell>
        <mxCell id="TP10MBpGBiV2c0ffZKtO-59" value="" style="endArrow=none;html=1;rounded=0;entryX=0;entryY=0.5;entryDx=0;entryDy=0;exitX=1;exitY=0.5;exitDx=0;exitDy=0;" edge="1" parent="1" source="TP10MBpGBiV2c0ffZKtO-58" target="TP10MBpGBiV2c0ffZKtO-58">
          <mxGeometry width="50" height="50" relative="1" as="geometry">
            <mxPoint x="1246" y="580" as="sourcePoint" />
            <mxPoint x="1296" y="530" as="targetPoint" />
          </mxGeometry>
        </mxCell>
        <mxCell id="TP10MBpGBiV2c0ffZKtO-60" value="" style="endArrow=none;html=1;rounded=0;exitX=0.5;exitY=1;exitDx=0;exitDy=0;" edge="1" parent="1" source="TP10MBpGBiV2c0ffZKtO-58">
          <mxGeometry width="50" height="50" relative="1" as="geometry">
            <mxPoint x="1246" y="580" as="sourcePoint" />
            <mxPoint x="986" y="360" as="targetPoint" />
          </mxGeometry>
        </mxCell>
        <mxCell id="TP10MBpGBiV2c0ffZKtO-61" value="0" style="text;html=1;strokeColor=none;fillColor=none;align=center;verticalAlign=middle;whiteSpace=wrap;rounded=0;" vertex="1" parent="1">
          <mxGeometry x="956" y="360" width="30" height="30" as="geometry" />
        </mxCell>
        <mxCell id="TP10MBpGBiV2c0ffZKtO-62" value="0" style="text;html=1;strokeColor=none;fillColor=none;align=center;verticalAlign=middle;whiteSpace=wrap;rounded=0;" vertex="1" parent="1">
          <mxGeometry x="986" y="361" width="30" height="30" as="geometry" />
        </mxCell>
        <mxCell id="TP10MBpGBiV2c0ffZKtO-63" value="" style="endArrow=classic;html=1;rounded=0;entryX=0;entryY=0.5;entryDx=0;entryDy=0;" edge="1" parent="1" target="TP10MBpGBiV2c0ffZKtO-58">
          <mxGeometry width="50" height="50" relative="1" as="geometry">
            <mxPoint x="760" y="361" as="sourcePoint" />
            <mxPoint x="810" y="311" as="targetPoint" />
          </mxGeometry>
        </mxCell>
        <mxCell id="TP10MBpGBiV2c0ffZKtO-64" value="K" style="text;html=1;strokeColor=none;fillColor=none;align=center;verticalAlign=middle;whiteSpace=wrap;rounded=0;" vertex="1" parent="1">
          <mxGeometry x="815" y="331" width="60" height="30" as="geometry" />
        </mxCell>
        <mxCell id="TP10MBpGBiV2c0ffZKtO-65" value="15" style="text;html=1;strokeColor=none;fillColor=none;align=center;verticalAlign=middle;whiteSpace=wrap;rounded=0;" vertex="1" parent="1">
          <mxGeometry x="815" y="359" width="60" height="30" as="geometry" />
        </mxCell>
        <mxCell id="TP10MBpGBiV2c0ffZKtO-66" value="" style="ellipse;whiteSpace=wrap;html=1;aspect=fixed;" vertex="1" parent="1">
          <mxGeometry x="1212" y="320" width="80" height="80" as="geometry" />
        </mxCell>
        <mxCell id="TP10MBpGBiV2c0ffZKtO-67" value="" style="endArrow=none;html=1;rounded=0;entryX=0;entryY=0.5;entryDx=0;entryDy=0;exitX=1;exitY=0.5;exitDx=0;exitDy=0;" edge="1" parent="1" source="TP10MBpGBiV2c0ffZKtO-66" target="TP10MBpGBiV2c0ffZKtO-66">
          <mxGeometry width="50" height="50" relative="1" as="geometry">
            <mxPoint x="1512" y="580" as="sourcePoint" />
            <mxPoint x="1562" y="530" as="targetPoint" />
          </mxGeometry>
        </mxCell>
        <mxCell id="TP10MBpGBiV2c0ffZKtO-68" value="" style="endArrow=none;html=1;rounded=0;exitX=0.5;exitY=1;exitDx=0;exitDy=0;" edge="1" parent="1" source="TP10MBpGBiV2c0ffZKtO-66">
          <mxGeometry width="50" height="50" relative="1" as="geometry">
            <mxPoint x="1512" y="580" as="sourcePoint" />
            <mxPoint x="1252" y="360" as="targetPoint" />
          </mxGeometry>
        </mxCell>
        <mxCell id="TP10MBpGBiV2c0ffZKtO-69" value="0" style="text;html=1;strokeColor=none;fillColor=none;align=center;verticalAlign=middle;whiteSpace=wrap;rounded=0;" vertex="1" parent="1">
          <mxGeometry x="1222" y="360" width="30" height="30" as="geometry" />
        </mxCell>
        <mxCell id="TP10MBpGBiV2c0ffZKtO-70" value="0" style="text;html=1;strokeColor=none;fillColor=none;align=center;verticalAlign=middle;whiteSpace=wrap;rounded=0;" vertex="1" parent="1">
          <mxGeometry x="1252" y="361" width="30" height="30" as="geometry" />
        </mxCell>
        <mxCell id="TP10MBpGBiV2c0ffZKtO-71" value="" style="endArrow=classic;html=1;rounded=0;entryX=0;entryY=0.5;entryDx=0;entryDy=0;" edge="1" parent="1" target="TP10MBpGBiV2c0ffZKtO-66">
          <mxGeometry width="50" height="50" relative="1" as="geometry">
            <mxPoint x="1026" y="361" as="sourcePoint" />
            <mxPoint x="1076" y="311" as="targetPoint" />
          </mxGeometry>
        </mxCell>
        <mxCell id="TP10MBpGBiV2c0ffZKtO-72" value="L" style="text;html=1;strokeColor=none;fillColor=none;align=center;verticalAlign=middle;whiteSpace=wrap;rounded=0;" vertex="1" parent="1">
          <mxGeometry x="1081" y="331" width="60" height="30" as="geometry" />
        </mxCell>
        <mxCell id="TP10MBpGBiV2c0ffZKtO-73" value="40" style="text;html=1;strokeColor=none;fillColor=none;align=center;verticalAlign=middle;whiteSpace=wrap;rounded=0;" vertex="1" parent="1">
          <mxGeometry x="1081" y="359" width="60" height="30" as="geometry" />
        </mxCell>
        <mxCell id="TP10MBpGBiV2c0ffZKtO-74" value="" style="ellipse;whiteSpace=wrap;html=1;aspect=fixed;" vertex="1" parent="1">
          <mxGeometry x="1478" y="320" width="80" height="80" as="geometry" />
        </mxCell>
        <mxCell id="TP10MBpGBiV2c0ffZKtO-75" value="" style="endArrow=none;html=1;rounded=0;entryX=0;entryY=0.5;entryDx=0;entryDy=0;exitX=1;exitY=0.5;exitDx=0;exitDy=0;" edge="1" parent="1" source="TP10MBpGBiV2c0ffZKtO-74" target="TP10MBpGBiV2c0ffZKtO-74">
          <mxGeometry width="50" height="50" relative="1" as="geometry">
            <mxPoint x="1778" y="580" as="sourcePoint" />
            <mxPoint x="1828" y="530" as="targetPoint" />
          </mxGeometry>
        </mxCell>
        <mxCell id="TP10MBpGBiV2c0ffZKtO-76" value="" style="endArrow=none;html=1;rounded=0;exitX=0.5;exitY=1;exitDx=0;exitDy=0;" edge="1" parent="1" source="TP10MBpGBiV2c0ffZKtO-74">
          <mxGeometry width="50" height="50" relative="1" as="geometry">
            <mxPoint x="1778" y="580" as="sourcePoint" />
            <mxPoint x="1518" y="360" as="targetPoint" />
          </mxGeometry>
        </mxCell>
        <mxCell id="TP10MBpGBiV2c0ffZKtO-77" value="0" style="text;html=1;strokeColor=none;fillColor=none;align=center;verticalAlign=middle;whiteSpace=wrap;rounded=0;" vertex="1" parent="1">
          <mxGeometry x="1488" y="360" width="30" height="30" as="geometry" />
        </mxCell>
        <mxCell id="TP10MBpGBiV2c0ffZKtO-78" value="0" style="text;html=1;strokeColor=none;fillColor=none;align=center;verticalAlign=middle;whiteSpace=wrap;rounded=0;" vertex="1" parent="1">
          <mxGeometry x="1518" y="361" width="30" height="30" as="geometry" />
        </mxCell>
        <mxCell id="TP10MBpGBiV2c0ffZKtO-79" value="" style="endArrow=classic;html=1;rounded=0;entryX=0;entryY=0.5;entryDx=0;entryDy=0;" edge="1" parent="1" target="TP10MBpGBiV2c0ffZKtO-74">
          <mxGeometry width="50" height="50" relative="1" as="geometry">
            <mxPoint x="1292" y="361" as="sourcePoint" />
            <mxPoint x="1342" y="311" as="targetPoint" />
          </mxGeometry>
        </mxCell>
        <mxCell id="TP10MBpGBiV2c0ffZKtO-80" value="M" style="text;html=1;strokeColor=none;fillColor=none;align=center;verticalAlign=middle;whiteSpace=wrap;rounded=0;" vertex="1" parent="1">
          <mxGeometry x="1347" y="331" width="60" height="30" as="geometry" />
        </mxCell>
        <mxCell id="TP10MBpGBiV2c0ffZKtO-81" value="60" style="text;html=1;strokeColor=none;fillColor=none;align=center;verticalAlign=middle;whiteSpace=wrap;rounded=0;" vertex="1" parent="1">
          <mxGeometry x="1347" y="359" width="60" height="30" as="geometry" />
        </mxCell>
        <mxCell id="TP10MBpGBiV2c0ffZKtO-82" value="" style="ellipse;whiteSpace=wrap;html=1;aspect=fixed;" vertex="1" parent="1">
          <mxGeometry x="1746" y="320" width="80" height="80" as="geometry" />
        </mxCell>
        <mxCell id="TP10MBpGBiV2c0ffZKtO-83" value="" style="endArrow=none;html=1;rounded=0;entryX=0;entryY=0.5;entryDx=0;entryDy=0;exitX=1;exitY=0.5;exitDx=0;exitDy=0;" edge="1" parent="1" source="TP10MBpGBiV2c0ffZKtO-82" target="TP10MBpGBiV2c0ffZKtO-82">
          <mxGeometry width="50" height="50" relative="1" as="geometry">
            <mxPoint x="2046" y="580" as="sourcePoint" />
            <mxPoint x="2096" y="530" as="targetPoint" />
          </mxGeometry>
        </mxCell>
        <mxCell id="TP10MBpGBiV2c0ffZKtO-84" value="" style="endArrow=none;html=1;rounded=0;exitX=0.5;exitY=1;exitDx=0;exitDy=0;" edge="1" parent="1" source="TP10MBpGBiV2c0ffZKtO-82">
          <mxGeometry width="50" height="50" relative="1" as="geometry">
            <mxPoint x="2046" y="580" as="sourcePoint" />
            <mxPoint x="1786" y="360" as="targetPoint" />
          </mxGeometry>
        </mxCell>
        <mxCell id="TP10MBpGBiV2c0ffZKtO-85" value="0" style="text;html=1;strokeColor=none;fillColor=none;align=center;verticalAlign=middle;whiteSpace=wrap;rounded=0;" vertex="1" parent="1">
          <mxGeometry x="1756" y="360" width="30" height="30" as="geometry" />
        </mxCell>
        <mxCell id="TP10MBpGBiV2c0ffZKtO-86" value="0" style="text;html=1;strokeColor=none;fillColor=none;align=center;verticalAlign=middle;whiteSpace=wrap;rounded=0;" vertex="1" parent="1">
          <mxGeometry x="1786" y="361" width="30" height="30" as="geometry" />
        </mxCell>
        <mxCell id="TP10MBpGBiV2c0ffZKtO-87" value="" style="endArrow=classic;html=1;rounded=0;entryX=0;entryY=0.5;entryDx=0;entryDy=0;" edge="1" parent="1" target="TP10MBpGBiV2c0ffZKtO-82">
          <mxGeometry width="50" height="50" relative="1" as="geometry">
            <mxPoint x="1560" y="361" as="sourcePoint" />
            <mxPoint x="1610" y="311" as="targetPoint" />
          </mxGeometry>
        </mxCell>
        <mxCell id="TP10MBpGBiV2c0ffZKtO-88" value="N" style="text;html=1;strokeColor=none;fillColor=none;align=center;verticalAlign=middle;whiteSpace=wrap;rounded=0;" vertex="1" parent="1">
          <mxGeometry x="1615" y="331" width="60" height="30" as="geometry" />
        </mxCell>
        <mxCell id="TP10MBpGBiV2c0ffZKtO-89" value="40" style="text;html=1;strokeColor=none;fillColor=none;align=center;verticalAlign=middle;whiteSpace=wrap;rounded=0;" vertex="1" parent="1">
          <mxGeometry x="1792" y="210" width="60" height="30" as="geometry" />
        </mxCell>
        <mxCell id="TP10MBpGBiV2c0ffZKtO-90" value="" style="ellipse;whiteSpace=wrap;html=1;aspect=fixed;" vertex="1" parent="1">
          <mxGeometry x="1780" y="20" width="80" height="80" as="geometry" />
        </mxCell>
        <mxCell id="TP10MBpGBiV2c0ffZKtO-91" value="" style="endArrow=none;html=1;rounded=0;entryX=0;entryY=0.5;entryDx=0;entryDy=0;exitX=1;exitY=0.5;exitDx=0;exitDy=0;" edge="1" parent="1" source="TP10MBpGBiV2c0ffZKtO-90" target="TP10MBpGBiV2c0ffZKtO-90">
          <mxGeometry width="50" height="50" relative="1" as="geometry">
            <mxPoint x="2080" y="280" as="sourcePoint" />
            <mxPoint x="2130" y="230" as="targetPoint" />
          </mxGeometry>
        </mxCell>
        <mxCell id="TP10MBpGBiV2c0ffZKtO-92" value="" style="endArrow=none;html=1;rounded=0;exitX=0.5;exitY=1;exitDx=0;exitDy=0;" edge="1" parent="1" source="TP10MBpGBiV2c0ffZKtO-90">
          <mxGeometry width="50" height="50" relative="1" as="geometry">
            <mxPoint x="2080" y="280" as="sourcePoint" />
            <mxPoint x="1819.9999999999995" y="60" as="targetPoint" />
          </mxGeometry>
        </mxCell>
        <mxCell id="TP10MBpGBiV2c0ffZKtO-93" value="0" style="text;html=1;strokeColor=none;fillColor=none;align=center;verticalAlign=middle;whiteSpace=wrap;rounded=0;" vertex="1" parent="1">
          <mxGeometry x="1790" y="60" width="30" height="30" as="geometry" />
        </mxCell>
        <mxCell id="TP10MBpGBiV2c0ffZKtO-94" value="0" style="text;html=1;strokeColor=none;fillColor=none;align=center;verticalAlign=middle;whiteSpace=wrap;rounded=0;" vertex="1" parent="1">
          <mxGeometry x="1820" y="61" width="30" height="30" as="geometry" />
        </mxCell>
        <mxCell id="TP10MBpGBiV2c0ffZKtO-95" value="" style="endArrow=classic;html=1;rounded=0;exitX=0.5;exitY=0;exitDx=0;exitDy=0;" edge="1" parent="1" source="TP10MBpGBiV2c0ffZKtO-82">
          <mxGeometry width="50" height="50" relative="1" as="geometry">
            <mxPoint x="1570" y="371" as="sourcePoint" />
            <mxPoint x="1820" y="100" as="targetPoint" />
          </mxGeometry>
        </mxCell>
        <mxCell id="TP10MBpGBiV2c0ffZKtO-96" value="O" style="text;html=1;strokeColor=none;fillColor=none;align=center;verticalAlign=middle;whiteSpace=wrap;rounded=0;" vertex="1" parent="1">
          <mxGeometry x="1754" y="200" width="60" height="30" as="geometry" />
        </mxCell>
        <mxCell id="TP10MBpGBiV2c0ffZKtO-97" value="" style="endArrow=classic;html=1;rounded=0;exitX=0.773;exitY=0.016;exitDx=0;exitDy=0;exitPerimeter=0;entryX=0;entryY=0.5;entryDx=0;entryDy=0;" edge="1" parent="1" source="TP10MBpGBiV2c0ffZKtO-1" target="TP10MBpGBiV2c0ffZKtO-90">
          <mxGeometry width="50" height="50" relative="1" as="geometry">
            <mxPoint x="870" y="200" as="sourcePoint" />
            <mxPoint x="1665.9999999999995" y="-240" as="targetPoint" />
          </mxGeometry>
        </mxCell>
        <mxCell id="TP10MBpGBiV2c0ffZKtO-98" value="F" style="text;html=1;strokeColor=none;fillColor=none;align=center;verticalAlign=middle;whiteSpace=wrap;rounded=0;" vertex="1" parent="1">
          <mxGeometry x="1090" y="-15" width="60" height="30" as="geometry" />
        </mxCell>
        <mxCell id="TP10MBpGBiV2c0ffZKtO-99" value="100" style="text;html=1;strokeColor=none;fillColor=none;align=center;verticalAlign=middle;whiteSpace=wrap;rounded=0;" vertex="1" parent="1">
          <mxGeometry x="1090" y="15" width="60" height="30" as="geometry" />
        </mxCell>
        <mxCell id="TP10MBpGBiV2c0ffZKtO-100" value="" style="ellipse;whiteSpace=wrap;html=1;aspect=fixed;" vertex="1" parent="1">
          <mxGeometry x="2040" y="-35" width="80" height="80" as="geometry" />
        </mxCell>
        <mxCell id="TP10MBpGBiV2c0ffZKtO-101" value="" style="endArrow=none;html=1;rounded=0;entryX=0;entryY=0.5;entryDx=0;entryDy=0;exitX=1;exitY=0.5;exitDx=0;exitDy=0;" edge="1" parent="1" source="TP10MBpGBiV2c0ffZKtO-100" target="TP10MBpGBiV2c0ffZKtO-100">
          <mxGeometry width="50" height="50" relative="1" as="geometry">
            <mxPoint x="2340" y="225" as="sourcePoint" />
            <mxPoint x="2390" y="175" as="targetPoint" />
          </mxGeometry>
        </mxCell>
        <mxCell id="TP10MBpGBiV2c0ffZKtO-102" value="" style="endArrow=none;html=1;rounded=0;exitX=0.5;exitY=1;exitDx=0;exitDy=0;" edge="1" parent="1" source="TP10MBpGBiV2c0ffZKtO-100">
          <mxGeometry width="50" height="50" relative="1" as="geometry">
            <mxPoint x="2340" y="225" as="sourcePoint" />
            <mxPoint x="2079.9999999999995" y="5" as="targetPoint" />
          </mxGeometry>
        </mxCell>
        <mxCell id="TP10MBpGBiV2c0ffZKtO-103" value="0" style="text;html=1;strokeColor=none;fillColor=none;align=center;verticalAlign=middle;whiteSpace=wrap;rounded=0;" vertex="1" parent="1">
          <mxGeometry x="2050" y="5" width="30" height="30" as="geometry" />
        </mxCell>
        <mxCell id="TP10MBpGBiV2c0ffZKtO-104" value="0" style="text;html=1;strokeColor=none;fillColor=none;align=center;verticalAlign=middle;whiteSpace=wrap;rounded=0;" vertex="1" parent="1">
          <mxGeometry x="2080" y="6" width="30" height="30" as="geometry" />
        </mxCell>
        <mxCell id="TP10MBpGBiV2c0ffZKtO-105" value="" style="endArrow=classic;html=1;rounded=0;entryX=0;entryY=0.5;entryDx=0;entryDy=0;exitX=1.014;exitY=0.301;exitDx=0;exitDy=0;exitPerimeter=0;" edge="1" parent="1" source="TP10MBpGBiV2c0ffZKtO-90" target="TP10MBpGBiV2c0ffZKtO-100">
          <mxGeometry width="50" height="50" relative="1" as="geometry">
            <mxPoint x="1790" y="-70" as="sourcePoint" />
            <mxPoint x="1840" y="-120" as="targetPoint" />
          </mxGeometry>
        </mxCell>
        <mxCell id="TP10MBpGBiV2c0ffZKtO-106" value="P" style="text;html=1;strokeColor=none;fillColor=none;align=center;verticalAlign=middle;whiteSpace=wrap;rounded=0;" vertex="1" parent="1">
          <mxGeometry x="1910" width="60" height="30" as="geometry" />
        </mxCell>
        <mxCell id="TP10MBpGBiV2c0ffZKtO-107" value="15" style="text;html=1;strokeColor=none;fillColor=none;align=center;verticalAlign=middle;whiteSpace=wrap;rounded=0;" vertex="1" parent="1">
          <mxGeometry x="1910" y="20" width="60" height="30" as="geometry" />
        </mxCell>
        <mxCell id="TP10MBpGBiV2c0ffZKtO-108" value="" style="ellipse;whiteSpace=wrap;html=1;aspect=fixed;" vertex="1" parent="1">
          <mxGeometry x="2300" y="-75" width="80" height="80" as="geometry" />
        </mxCell>
        <mxCell id="TP10MBpGBiV2c0ffZKtO-109" value="" style="endArrow=none;html=1;rounded=0;entryX=0;entryY=0.5;entryDx=0;entryDy=0;exitX=1;exitY=0.5;exitDx=0;exitDy=0;" edge="1" parent="1" source="TP10MBpGBiV2c0ffZKtO-108" target="TP10MBpGBiV2c0ffZKtO-108">
          <mxGeometry width="50" height="50" relative="1" as="geometry">
            <mxPoint x="2600" y="185" as="sourcePoint" />
            <mxPoint x="2650" y="135" as="targetPoint" />
          </mxGeometry>
        </mxCell>
        <mxCell id="TP10MBpGBiV2c0ffZKtO-110" value="" style="endArrow=none;html=1;rounded=0;exitX=0.5;exitY=1;exitDx=0;exitDy=0;" edge="1" parent="1" source="TP10MBpGBiV2c0ffZKtO-108">
          <mxGeometry width="50" height="50" relative="1" as="geometry">
            <mxPoint x="2600" y="185" as="sourcePoint" />
            <mxPoint x="2340" y="-35" as="targetPoint" />
          </mxGeometry>
        </mxCell>
        <mxCell id="TP10MBpGBiV2c0ffZKtO-111" value="0" style="text;html=1;strokeColor=none;fillColor=none;align=center;verticalAlign=middle;whiteSpace=wrap;rounded=0;" vertex="1" parent="1">
          <mxGeometry x="2310" y="-35" width="30" height="30" as="geometry" />
        </mxCell>
        <mxCell id="TP10MBpGBiV2c0ffZKtO-112" value="0" style="text;html=1;strokeColor=none;fillColor=none;align=center;verticalAlign=middle;whiteSpace=wrap;rounded=0;" vertex="1" parent="1">
          <mxGeometry x="2340" y="-34" width="30" height="30" as="geometry" />
        </mxCell>
        <mxCell id="TP10MBpGBiV2c0ffZKtO-113" value="" style="endArrow=classic;html=1;rounded=0;entryX=0;entryY=0.5;entryDx=0;entryDy=0;exitX=1.014;exitY=0.301;exitDx=0;exitDy=0;exitPerimeter=0;" edge="1" parent="1">
          <mxGeometry width="50" height="50" relative="1" as="geometry">
            <mxPoint x="2119.9999999999995" y="4.079999999999927" as="sourcePoint" />
            <mxPoint x="2298.88" y="-35" as="targetPoint" />
          </mxGeometry>
        </mxCell>
        <mxCell id="TP10MBpGBiV2c0ffZKtO-114" value="Q" style="text;html=1;strokeColor=none;fillColor=none;align=center;verticalAlign=middle;whiteSpace=wrap;rounded=0;" vertex="1" parent="1">
          <mxGeometry x="2168.88" y="-40" width="60" height="30" as="geometry" />
        </mxCell>
        <mxCell id="TP10MBpGBiV2c0ffZKtO-115" value="30" style="text;html=1;strokeColor=none;fillColor=none;align=center;verticalAlign=middle;whiteSpace=wrap;rounded=0;" vertex="1" parent="1">
          <mxGeometry x="2168.88" y="-20" width="60" height="30" as="geometry" />
        </mxCell>
      </root>
    </mxGraphModel>
  </diagram>
</mxfile>
